<svg xmlns="http://www.w3.org/2000/svg" viewBox="0 0 500 500"><path d="M250 150 C 180 150, 120 210, 120 280 C 120 350, 180 410, 250 410 C 320 410, 380 350, 380 280 C 380 210, 320 150, 250 150 Z" fill="none" stroke="black" stroke-width="15"/><path d="M200 250 C 200 250, 200 270, 200 270" stroke="black" stroke-width="8"/><path d="M300 250 C 300 250, 300 270, 300 270" stroke="black" stroke-width="8"/><path d="M180 220 C 180 220, 220 220, 220 220" stroke="black" stroke-width="8"/><path d="M280 220 C 280 220, 320 220, 320 220" stroke="black" stroke-width="8"/><circle cx="420" cy="180" r="40" fill="none" stroke="black" stroke-width="8"/><path d="M420 160 L420 200 M400 180 L440 180" stroke="black" stroke-width="4"/><path d="M250 300 C 220 300, 280 300, 250 300" stroke="black" stroke-width="8"/><path d="M260 320 C 260 320, 270 330, 280 320" fill="none" stroke="#ff9999" stroke-width="4"/><path d="M240 320 C 240 320, 230 330, 220 320" fill="none" stroke="#ff9999" stroke-width="4"/></svg>